<svg xmlns="http://www.w3.org/2000/svg" viewBox="0 0 521.79 324.93"><title>OTOBI LOGO3</title><path d="M505.22,317.78h-6.79l0.07-18.4h6.72c6,0,9.17,3.29,9.17,9.2s-3.21,9.2-9.17,9.2m0-24.53H491.16v30.67h14.09c11.9,0,16.43-6.61,16.43-15.33S517.16,293.25,505.26,293.25Zm-57.11,30.66H474v-6H455.4v-6.75h17.89v-5.26H455.4V299.2H474v-6H448.14v30.66Zm-38.2,0h10.22l11.9-30.67h-7.55l-9,23.79h-0.95l-9-23.79h-7.52Zm-48.24,0h24.93v-6.09H369V293.25H361.7v30.67Zm-33.56-5.3c-5.44,0-9.64-4-9.64-10s4.2-10,9.64-10,9.64,4,9.64,10S333.62,318.62,328.14,318.62Zm0,6.31c10,0,16.87-6.71,16.87-16.34s-6.83-16.34-16.87-16.34-16.82,6.71-16.82,16.34S318.14,324.93,328.14,324.93Zm-47.38,0c9.59,0,14.59-3.47,14.59-9.56,0-7.32-7.19-8.31-13-9.36l-3.33-.58c-3.15-.58-4.65-1.75-4.65-3.61,0-2.37,2.2-3.79,6.37-3.79,4.61,0,6.78,1.86,7.25,4.63h6.54c-0.07-7.59-5.62-10.4-13.64-10.4-8.6,0-13.48,3.43-13.48,9.23,0,6.67,5.76,8.2,11.58,9.22l3.81,0.66c3.67,0.62,5.38,1.68,5.38,3.79,0,2.4-2.6,4-7.36,4-5.05,0-7.43-1.86-7.68-4.74h-6.56C266.47,321.6,271.39,324.92,280.76,324.92Zm-43.69-.43a3.85,3.85,0,1,0-3.86-3.84A3.89,3.89,0,0,0,237.06,324.49Zm-56-.58h25.8v-6H188.34v-6.75h17.89v-5.26H188.34V299.2h18.55v-6h-25.8v30.66Zm-31.81,1c6.79,0,13.62-3,15.12-12h-7c-1.31,4-4.34,5.73-8.14,5.73-5.44,0-9.6-4.15-9.6-10s4.16-10,9.6-10c3.8,0,6.83,1.75,8.14,5.69h7c-1.5-9-8.4-12-15.12-12-9.93,0-16.79,6.71-16.79,16.34S139.34,324.93,149.27,324.93Zm-52-11.65,4.82-13.14h1.39l4.82,13.14h-11Zm15,10.65h7.55l-11.9-30.67H97.64L85.77,323.92h7.52l1.9-5.13h15.12ZM52.79,309.59V299.34h8.28c3.57,0,5.8,1.72,5.8,5.14s-2.23,5.11-5.8,5.11H52.79Zm-7.26,14.33h7.26v-8.24h8.75c8.17,0,12.63-3.9,12.63-11.2s-4.46-11.23-12.63-11.23h-16v30.67Zm-31.14,1c9.59,0,14.59-3.47,14.59-9.56,0-7.32-7.19-8.31-13-9.36l-3.33-.58c-3.15-.58-4.65-1.75-4.65-3.61,0-2.37,2.2-3.79,6.37-3.79,4.61,0,6.78,1.86,7.25,4.63H28.1c-0.07-7.59-5.62-10.4-13.64-10.4C5.87,292.25,1,295.68,1,301.48c0,6.67,5.76,8.2,11.58,9.22l3.8,0.66C20,312,21.75,313,21.75,315.14c0,2.4-2.6,4-7.36,4-5.05,0-7.43-1.86-7.68-4.74H0.14C0.11,321.6,5,324.92,14.39,324.92Z" fill="#231f20" fill-rule="evenodd"/><path d="M95.57,104.42a54,54,0,0,0-20.77-4,54,54,0,1,0,0,108.08A54.2,54.2,0,0,0,95.57,104.42m7.9,119.36a74.22,74.22,0,0,1-28.67,5.51,72.5,72.5,0,0,1-52.87-21.91h0A74.47,74.47,0,0,1,5.51,183.18h0a77.3,77.3,0,0,1,0-57.34h0a74.49,74.49,0,0,1,16.41-24.18h0A74.46,74.46,0,0,1,46.11,85.23h0A74.25,74.25,0,0,1,74.8,79.71a74.27,74.27,0,0,1,28.68,5.51h0a74.48,74.48,0,0,1,24.18,16.41,74.12,74.12,0,0,1,0,105.74h0A74.37,74.37,0,0,1,103.46,223.77Z" fill="#231f20"/><path d="M240.13,204.57a53.65,53.65,0,0,0,59-11.83h0a53.62,53.62,0,0,0,0-76.47h0a54.07,54.07,0,1,0-59,88.31m-48.5-78.75a77.57,77.57,0,0,1,40.59-40.6h0a77.32,77.32,0,0,1,57.35,0h0a77.64,77.64,0,0,1,40.59,40.59h0a77.36,77.36,0,0,1,0,57.35h0a77.63,77.63,0,0,1-40.59,40.59h0a77.33,77.33,0,0,1-57.35,0h0A74.52,74.52,0,0,1,208,207.37h0A75.56,75.56,0,0,1,191.63,125.82Z" fill="#231f20"/><path d="M439.14,104.42a54.39,54.39,0,1,0,17.46,88.32h0a54.4,54.4,0,0,0-17.47-88.32M345.38,0h18.95V64.19h0V102.8l1.23-1.24h0A75.56,75.56,0,0,1,447,85.23h0a77.63,77.63,0,0,1,40.59,40.59h0a74.12,74.12,0,0,1-16.41,81.54h0a74.53,74.53,0,0,1-24.18,16.41h0a77.32,77.32,0,0,1-57.35,0h0a77.61,77.61,0,0,1-40.59-40.59h0a74.27,74.27,0,0,1-5.51-28.68h0v-96h0V0h1.81Z" fill="#231f20"/><rect x="372.22" y="39.45" width="121.03" height="20.75" fill="#231f20"/><polygon points="157.47 241.01 157.47 238.42 157.47 238.15 157.47 232.87 157.47 60.11 1.81 60.11 0 60.11 0 58.3 0 41.17 0 39.37 1.81 39.37 157.03 39.37 157.03 1.6 157.03 0 158.84 0 175.97 0 177.78 0 177.78 1.6 177.78 39.37 335.68 39.37 335.68 60.11 178.22 60.11 178.22 241.01 157.47 241.01" fill="#231f20"/><polygon points="519.98 269.63 1.81 269.63 0 269.63 0 267.82 0 250.69 0 248.89 1.81 248.89 519.98 248.89 521.79 248.89 521.79 250.69 521.79 267.82 521.79 269.63 519.98 269.63" fill="#231f20"/><polygon points="501.04 241.01 501.04 69.75 501.04 67.98 502.85 67.98 519.98 67.98 521.79 67.98 521.79 69.75 521.79 241.01 501.04 241.01" fill="#231f20"/><polygon points="501.04 60.19 501.04 41.25 501.04 39.45 502.85 39.45 519.98 39.45 521.79 39.45 521.79 41.25 521.79 60.19 501.04 60.19" fill="#231f20"/></svg>